<svg width="53" height="53" viewBox="0 0 53 53" fill="none" xmlns="http://www.w3.org/2000/svg">
<path d="M16.5145 0.968986C17.6262 2.13569 18.3628 3.5466 18.7907 5.07276C19.4854 7.55179 19.4605 10.3346 19.2511 13.1739C18.8319 18.8527 17.7335 24.834 19.0858 28.5324C20.3552 32.0037 22.3674 34.0572 24.5913 35.0586C25.5479 35.4896 26.5535 35.7249 27.5696 35.7807C29.95 28.6462 29.3721 19.5652 25.3372 13.4515C30.6605 18.692 33.211 26.6415 31.6525 35.0016L30.6948 35.3941C30.992 35.3037 31.2863 35.1973 31.5779 35.0773C36.1356 33.2019 39.8395 27.776 38.2313 19.8675C37.4924 16.234 35.0053 11.1206 30.8738 7.17372C27.2995 3.75941 22.5405 1.18989 16.5144 0.969206L16.5145 0.968986ZM47.7055 20.8371C47.6223 22.1611 47.2152 23.4137 46.575 24.5532C45.4558 26.5447 43.7067 28.2644 41.8113 29.8997C38.0205 33.17 33.6435 36.2053 32.214 39.2841C30.86 42.2006 30.8404 44.6802 31.586 46.6475C31.9111 47.505 32.3854 48.2712 32.982 48.9317C38.8368 45.963 44.05 40.0087 45.3299 33.7526C45.3814 40.2762 42.0657 46.7559 35.9691 50.9765C39.8954 52.5414 45.4096 51.4647 49.2474 45.6659C51.0254 42.9792 52.6503 38.2823 52.5357 33.2982C52.4384 29.0673 51.1371 24.6415 47.7056 20.8374L47.7055 20.8371ZM1.28903 29.18C0.28504 34.2047 1.42928 38.6765 3.50908 42.3624C5.95897 46.7037 9.75872 49.9092 12.6602 51.3083C18.9224 54.3281 24.2085 52.4316 26.7825 49.0788C19.3863 48.5698 13.2244 44.6978 9.93387 39.0659C14.233 43.7875 21.7567 46.2383 28.3059 45.7941C28.481 44.922 28.4987 44.0205 28.3396 43.1177C27.9743 41.0457 26.6854 38.9234 24.0306 37.1098C21.2283 35.1957 15.9167 34.8272 10.987 33.9558C8.52221 33.5204 6.14061 32.9389 4.16067 31.7998C3.02726 31.1478 2.03808 30.276 1.28925 29.1801L1.28903 29.18Z" fill="black"/>
</svg>